<svg xmlns="http://www.w3.org/2000/svg" viewBox="0 0 800 480">
  <defs>
    <linearGradient id="neuro-bg" x1="0" y1="0" x2="1" y2="1">
      <stop offset="0%" stop-color="#111827" />
      <stop offset="45%" stop-color="#1d4ed8" />
      <stop offset="100%" stop-color="#06b6d4" />
    </linearGradient>
    <radialGradient id="neuro-glow" cx="50%" cy="55%" r="60%">
      <stop offset="0%" stop-color="#f0f9ff" stop-opacity="0.5" />
      <stop offset="65%" stop-color="#0ea5e9" stop-opacity="0.15" />
      <stop offset="100%" stop-color="#0f172a" stop-opacity="0" />
    </radialGradient>
    <linearGradient id="axon" x1="0" y1="0" x2="1" y2="1">
      <stop offset="0%" stop-color="#38bdf8" />
      <stop offset="100%" stop-color="#f472b6" />
    </linearGradient>
  </defs>
  <rect width="800" height="480" rx="32" fill="url(#neuro-bg)" />
  <rect width="800" height="480" rx="32" fill="url(#neuro-glow)" />
  <g stroke="#bae6fd" stroke-opacity="0.18" stroke-width="1.2" fill="none">
    <path d="M120 120c120 140 320 140 440 0" />
    <path d="M120 200c120 140 320 140 440 0" />
    <path d="M120 280c120 140 320 140 440 0" />
  </g>
  <g transform="translate(400 240)">
    <path d="M-120 -80c40-60 200-60 240 0c40 60 40 160 0 220c-40 60-200 60-240 0c-40-60-40-160 0-220z" fill="#0b1120" fill-opacity="0.6" stroke="#38bdf8" stroke-opacity="0.45" stroke-width="3" />
    <path d="M-82 -20c-18 44-18 96 0 140c18 44 58 70 82 70s64-26 82-70c18-44 18-96 0-140c-18-44-58-70-82-70s-64 26-82 70z" fill="none" stroke="#38bdf8" stroke-width="2" stroke-dasharray="10 12" stroke-opacity="0.6" />
    <path d="M-48 -32c-12 30-12 90 0 120c12 30 40 48 48 48s36-18 48-48c12-30 12-90 0-120c-12-30-40-48-48-48s-36 18-48 48z" fill="#0f172a" fill-opacity="0.7" stroke="#f472b6" stroke-width="2.5" />
    <path d="M-60 0H60" stroke="url(#axon)" stroke-width="6" stroke-linecap="round" />
    <circle cx="0" cy="0" r="18" fill="#f1f5f9" stroke="#f472b6" stroke-width="3" />
    <g stroke="#d946ef" stroke-width="3" stroke-linecap="round" stroke-dasharray="8 10">
      <path d="M0 -18V-60" />
      <path d="M0 18V60" />
      <path d="M-18 0H-56" />
      <path d="M18 0H56" />
    </g>
  </g>
  <g transform="translate(124 120)" fill="#38bdf8" fill-opacity="0.32">
    <rect x="0" y="0" width="54" height="54" rx="12" />
    <rect x="70" y="42" width="40" height="40" rx="10" />
    <rect x="-24" y="142" width="60" height="60" rx="14" />
  </g>
  <g transform="translate(620 140)" fill="#f472b6" fill-opacity="0.55">
    <circle cx="0" cy="0" r="16" />
    <circle cx="32" cy="32" r="10" />
    <circle cx="-28" cy="52" r="12" />
    <circle cx="6" cy="86" r="9" />
  </g>
  <text x="400" y="404" text-anchor="middle" fill="#f8fafc" font-family="'Inter', sans-serif" font-size="30" font-weight="600" letter-spacing="4">
    FLEXIBLE BRAIN-COMPUTER INTERFACES
  </text>
  <text x="400" y="442" text-anchor="middle" fill="#e0f2fe" font-family="'Inter', sans-serif" font-size="16" letter-spacing="6">
    JOHNS HOPKINS APPLIED PHYSICS LAB
  </text>
</svg>
