<svg xmlns="http://www.w3.org/2000/svg" viewBox="0 0 800 480">
  <defs>
    <linearGradient id="orbital-bg" x1="0" y1="0" x2="1" y2="1">
      <stop offset="0%" stop-color="#020617" />
      <stop offset="60%" stop-color="#0f172a" />
      <stop offset="100%" stop-color="#1d4ed8" />
    </linearGradient>
    <radialGradient id="earth-glow" cx="40%" cy="55%" r="55%">
      <stop offset="0%" stop-color="#f8fafc" stop-opacity="0.3" />
      <stop offset="70%" stop-color="#0f172a" stop-opacity="0.0" />
    </radialGradient>
    <linearGradient id="orbit" x1="0" y1="0" x2="1" y2="1">
      <stop offset="0%" stop-color="#38bdf8" />
      <stop offset="100%" stop-color="#a855f7" />
    </linearGradient>
    <radialGradient id="earth" cx="50%" cy="50%" r="50%">
      <stop offset="0%" stop-color="#0ea5e9" />
      <stop offset="70%" stop-color="#1e40af" />
      <stop offset="100%" stop-color="#1d4ed8" />
    </radialGradient>
    <linearGradient id="grid-light" x1="0" y1="0" x2="1" y2="0">
      <stop offset="0%" stop-color="#38bdf8" stop-opacity="0.18" />
      <stop offset="100%" stop-color="#60a5fa" stop-opacity="0.08" />
    </linearGradient>
  </defs>
  <rect width="800" height="480" rx="32" fill="url(#orbital-bg)" />
  <rect width="800" height="480" rx="32" fill="url(#earth-glow)" />
  <g stroke="#1e293b" stroke-width="1.5" stroke-opacity="0.4">
    <path d="M60 340h680" />
    <path d="M100 300h600" />
    <path d="M140 260h520" />
  </g>
  <g transform="translate(400 260)">
    <ellipse rx="220" ry="120" fill="none" stroke="url(#grid-light)" stroke-width="2" />
    <ellipse rx="180" ry="96" fill="none" stroke="url(#grid-light)" stroke-width="1.6" stroke-dasharray="12 14" />
    <ellipse rx="140" ry="70" fill="none" stroke="url(#grid-light)" stroke-width="1.3" stroke-dasharray="8 12" />
  </g>
  <g transform="translate(280 240)">
    <circle r="96" fill="url(#earth)" />
    <path d="M-96 0a96 36 0 1 0 192 0a96 36 0 1 0 -192 0" fill="none" stroke="#fef3c7" stroke-opacity="0.25" stroke-width="4" stroke-dasharray="12 16" />
    <path d="M0 -96v192" stroke="#fef3c7" stroke-opacity="0.2" stroke-width="3" stroke-dasharray="10 14" />
  </g>
  <g fill="#f8fafc" fill-opacity="0.65" transform="translate(400 240)">
    <circle cx="180" cy="-20" r="6" />
    <circle cx="120" cy="40" r="5" />
    <circle cx="60" cy="-60" r="4" />
  </g>
  <g transform="translate(400 240)" fill="#f8fafc">
    <path d="M210 -40h-34l-18 -42h-30l30 70l-30 70h30l18 -42h34z" fill-opacity="0.35" />
  </g>
  <g transform="translate(460 180)">
    <path d="M0 0h140l-24 80H24z" fill="#111827" fill-opacity="0.6" stroke="#38bdf8" stroke-width="2.2" stroke-opacity="0.5" />
    <path d="M24 0l46 -38l92 -6" fill="none" stroke="url(#orbit)" stroke-width="6" stroke-linecap="round" />
    <circle cx="46" cy="-38" r="7" fill="#38bdf8" />
    <circle cx="162" cy="-44" r="9" fill="#a855f7" />
  </g>
  <g transform="translate(520 120)" fill="#38bdf8" fill-opacity="0.35">
    <rect x="0" y="0" width="46" height="46" rx="10" />
    <rect x="60" y="48" width="36" height="36" rx="10" />
    <rect x="-30" y="96" width="48" height="48" rx="14" />
  </g>
  <text x="400" y="402" text-anchor="middle" fill="#e2e8f0" font-family="'Inter', sans-serif" font-size="30" font-weight="600" letter-spacing="4">
    LASER ORBITAL TRACKING ARRAY
  </text>
  <text x="400" y="440" text-anchor="middle" fill="#cbd5f5" font-family="'Inter', sans-serif" font-size="16" letter-spacing="6">
    CALTECH SPACE SYSTEMS LAB
  </text>
</svg>
