<svg xmlns="http://www.w3.org/2000/svg" viewBox="0 0 100 100">
  <defs>
    <!-- Main gradient for the star burst -->
    <radialGradient id="novaGradient" cx="50%" cy="50%">
      <stop offset="0%" style="stop-color:#E0C3FC;stop-opacity:1" />
      <stop offset="30%" style="stop-color:#9BB5FF;stop-opacity:1" />
      <stop offset="60%" style="stop-color:#646ECB;stop-opacity:1" />
      <stop offset="100%" style="stop-color:#372948;stop-opacity:1" />
    </radialGradient>

    <!-- Glow effect -->
    <filter id="glow">
      <feGaussianBlur stdDeviation="3" result="coloredBlur"/>
      <feMerge>
        <feMergeNode in="coloredBlur"/>
        <feMergeNode in="SourceGraphic"/>
      </feMerge>
    </filter>

    <!-- Inner core gradient -->
    <radialGradient id="coreGradient">
      <stop offset="0%" style="stop-color:#FFFFFF;stop-opacity:1" />
      <stop offset="50%" style="stop-color:#E0C3FC;stop-opacity:0.9" />
      <stop offset="100%" style="stop-color:#9BB5FF;stop-opacity:0.8" />
    </radialGradient>
  </defs>

  <!-- Background circle -->
  <circle cx="50" cy="50" r="48" fill="#0A0E27" stroke="#1A1F3A" stroke-width="0.5"/>

  <!-- Outer ring rays (stellar explosion) -->
  <g transform="translate(50, 50)">
    <!-- Major rays -->
    <path d="M 0,-35 L 3,-20 L 0,-5 L -3,-20 Z" fill="url(#novaGradient)" opacity="0.9" transform="rotate(0)"/>
    <path d="M 0,-35 L 3,-20 L 0,-5 L -3,-20 Z" fill="url(#novaGradient)" opacity="0.9" transform="rotate(45)"/>
    <path d="M 0,-35 L 3,-20 L 0,-5 L -3,-20 Z" fill="url(#novaGradient)" opacity="0.9" transform="rotate(90)"/>
    <path d="M 0,-35 L 3,-20 L 0,-5 L -3,-20 Z" fill="url(#novaGradient)" opacity="0.9" transform="rotate(135)"/>
    <path d="M 0,-35 L 3,-20 L 0,-5 L -3,-20 Z" fill="url(#novaGradient)" opacity="0.9" transform="rotate(180)"/>
    <path d="M 0,-35 L 3,-20 L 0,-5 L -3,-20 Z" fill="url(#novaGradient)" opacity="0.9" transform="rotate(225)"/>
    <path d="M 0,-35 L 3,-20 L 0,-5 L -3,-20 Z" fill="url(#novaGradient)" opacity="0.9" transform="rotate(270)"/>
    <path d="M 0,-35 L 3,-20 L 0,-5 L -3,-20 Z" fill="url(#novaGradient)" opacity="0.9" transform="rotate(315)"/>

    <!-- Minor rays -->
    <path d="M 0,-30 L 2,-18 L 0,-8 L -2,-18 Z" fill="url(#novaGradient)" opacity="0.6" transform="rotate(22.5)"/>
    <path d="M 0,-30 L 2,-18 L 0,-8 L -2,-18 Z" fill="url(#novaGradient)" opacity="0.6" transform="rotate(67.5)"/>
    <path d="M 0,-30 L 2,-18 L 0,-8 L -2,-18 Z" fill="url(#novaGradient)" opacity="0.6" transform="rotate(112.5)"/>
    <path d="M 0,-30 L 2,-18 L 0,-8 L -2,-18 Z" fill="url(#novaGradient)" opacity="0.6" transform="rotate(157.5)"/>
    <path d="M 0,-30 L 2,-18 L 0,-8 L -2,-18 Z" fill="url(#novaGradient)" opacity="0.6" transform="rotate(202.5)"/>
    <path d="M 0,-30 L 2,-18 L 0,-8 L -2,-18 Z" fill="url(#novaGradient)" opacity="0.6" transform="rotate(247.5)"/>
    <path d="M 0,-30 L 2,-18 L 0,-8 L -2,-18 Z" fill="url(#novaGradient)" opacity="0.6" transform="rotate(292.5)"/>
    <path d="M 0,-30 L 2,-18 L 0,-8 L -2,-18 Z" fill="url(#novaGradient)" opacity="0.6" transform="rotate(337.5)"/>
  </g>

  <!-- Central hexagon shape (representing structured innovation) -->
  <g transform="translate(50, 50)">
    <polygon points="0,-18 15.6,-9 15.6,9 0,18 -15.6,9 -15.6,-9"
             fill="none"
             stroke="url(#novaGradient)"
             stroke-width="2"
             opacity="0.8"/>
  </g>

  <!-- Inner core circle -->
  <circle cx="50" cy="50" r="12" fill="url(#coreGradient)" filter="url(#glow)"/>

  <!-- Center dot -->
  <circle cx="50" cy="50" r="5" fill="#FFFFFF" opacity="0.95"/>

  <!-- Orbital rings (suggesting movement/energy) -->
  <ellipse cx="50" cy="50" rx="28" ry="10"
           fill="none"
           stroke="url(#novaGradient)"
           stroke-width="0.5"
           opacity="0.4"
           transform="rotate(30 50 50)"/>
  <ellipse cx="50" cy="50" rx="28" ry="10"
           fill="none"
           stroke="url(#novaGradient)"
           stroke-width="0.5"
           opacity="0.4"
           transform="rotate(-30 50 50)"/>
</svg>